<svg width="190" height="51" viewBox="0 0 190 51" fill="none" xmlns="http://www.w3.org/2000/svg">
<g clip-path="url(#clip0_65_416)">
<path d="M12.5424 28.1095C13.053 27.9311 13.6123 27.954 14.1065 28.1736C14.6008 28.3932 14.9926 28.793 15.2023 29.2915C15.412 29.7901 15.4238 30.3498 15.2352 30.8566C15.0465 31.3635 14.6718 31.7793 14.1872 32.0195L13.9577 32.1173C13.2935 32.3521 12.698 32.7483 12.2249 33.2702C11.7517 33.7922 11.4156 34.4235 11.2468 35.1075C11.0781 35.7915 11.0819 36.5067 11.2579 37.1888C11.434 37.871 11.7768 38.4987 12.2555 39.0155C12.7342 39.5324 13.3338 39.9222 14.0005 40.15C14.6672 40.3777 15.38 40.4363 16.0749 40.3203C16.7698 40.2044 17.425 39.9176 17.9816 39.4858C18.5382 39.0539 18.9788 38.4905 19.2638 37.8462L19.3849 37.5424C19.472 37.2719 19.6123 37.0216 19.7978 36.8063C19.9832 36.591 20.2099 36.4151 20.4645 36.289C20.7191 36.1629 20.9964 36.0891 21.2801 36.072C21.5637 36.0549 21.8478 36.0949 22.1157 36.1895C22.3837 36.2842 22.6299 36.4316 22.8398 36.6231C23.0497 36.8145 23.2191 37.0462 23.338 37.3042C23.4568 37.5623 23.5227 37.8416 23.5318 38.1256C23.5408 38.4096 23.4928 38.6925 23.3906 38.9576C22.9122 40.3121 22.0985 41.5233 21.0253 42.4782C19.9521 43.433 18.6545 44.1004 17.2536 44.418C15.8527 44.7357 14.3942 44.6932 13.0141 44.2945C11.6341 43.8958 10.3775 43.154 9.3618 42.1383C8.34606 41.1225 7.60424 39.866 7.20557 38.486C6.80691 37.1059 6.7644 35.6474 7.08202 34.2464C7.39964 32.8455 8.06703 31.5479 9.0219 30.4748C9.97676 29.4016 11.188 28.5879 12.5424 28.1095ZM39.4577 28.1095C40.8122 28.5879 42.0234 29.4016 42.9782 30.4748C43.9331 31.5479 44.6005 32.8455 44.9181 34.2464C45.2357 35.6474 45.1932 37.1059 44.7946 38.486C44.3959 39.866 43.6541 41.1225 42.6383 42.1383C41.6226 43.154 40.3661 43.8958 38.986 44.2945C37.606 44.6932 36.1474 44.7357 34.7465 44.418C33.3456 44.1004 32.048 43.433 30.9748 42.4782C29.9017 41.5233 29.0879 40.3121 28.6096 38.9576C28.4311 38.4471 28.4541 37.8877 28.6737 37.3935C28.8933 36.8993 29.2931 36.5074 29.7916 36.2977C30.2901 36.088 30.8498 36.0763 31.3567 36.2649C31.8635 36.4535 32.2794 36.8283 32.5196 37.3129L32.6173 37.5424C32.8522 38.2066 33.2484 38.802 33.7703 39.2752C34.2922 39.7484 34.9236 40.0845 35.6076 40.2532C36.2915 40.422 37.0067 40.4182 37.6889 40.2421C38.371 40.0661 38.9987 39.7233 39.5156 39.2446C40.0325 38.7659 40.4223 38.1662 40.65 37.4995C40.8778 36.8329 40.9363 36.1201 40.8204 35.4252C40.7045 34.7303 40.4177 34.0751 39.9858 33.5185C39.554 32.9618 38.9906 32.5212 38.3463 32.2363L38.0424 32.1173C37.7793 32.0243 37.537 31.8805 37.3295 31.6939C37.1219 31.5074 36.9531 31.2817 36.8328 31.03C36.5897 30.5215 36.5585 29.9372 36.7462 29.4058C36.9339 28.8743 37.325 28.4391 37.8335 28.1961C38.342 27.953 38.9262 27.9218 39.4577 28.1095ZM17.5234 14.11L17.7423 14.2588L23.3906 18.6533C24.0877 19.1956 24.9364 19.5072 25.8188 19.5449C26.7012 19.5826 27.5734 19.3445 28.3142 18.8636L28.6096 18.6533L34.2578 14.2609C34.6486 13.9566 35.1333 13.7983 35.6284 13.8134C36.1234 13.8285 36.5976 14.0161 36.9691 14.3437C37.3405 14.6713 37.5859 15.1184 37.6628 15.6076C37.7396 16.0969 37.6432 16.5977 37.3901 17.0234L37.2413 17.2423L32.8468 22.8905C32.3045 23.5876 31.9928 24.4363 31.9551 25.3187C31.9174 26.2011 32.1556 27.0733 32.6364 27.8141L32.8468 28.1095L37.2392 33.7577C37.5435 34.1485 37.7018 34.6333 37.6867 35.1283C37.6715 35.6234 37.484 36.0976 37.1564 36.469C36.8288 36.8405 36.3817 37.0858 35.8924 37.1627C35.4032 37.2396 34.9024 37.1431 34.4767 36.89L34.2578 36.7413L28.6096 32.3468C27.9125 31.8044 27.0638 31.4928 26.1814 31.4551C25.299 31.4174 24.4268 31.6555 23.6859 32.1364L23.3906 32.3468L17.7423 36.7391C17.3516 37.0434 16.8668 37.2017 16.3717 37.1866C15.8767 37.1715 15.4025 36.9839 15.031 36.6563C14.6596 36.3287 14.4142 35.8816 14.3374 35.3924C14.2605 34.9031 14.357 34.4023 14.6101 33.9766L14.7588 33.7577L19.1533 28.1095C19.6956 27.4124 20.0073 26.5637 20.045 25.6813C20.0827 24.7989 19.8446 23.9267 19.3637 23.1859L19.1533 22.8905L14.7609 17.2423C14.4698 16.869 14.3117 16.4093 14.3115 15.9359C14.3114 15.4626 14.4693 15.0028 14.7602 14.6294C15.0511 14.256 15.4584 13.9904 15.9174 13.8747C16.3764 13.7591 16.8608 13.8 17.2939 13.991L17.5234 14.11ZM36.6251 6.375C38.6309 6.37408 40.5725 7.08257 42.1064 8.37515C43.6402 9.66773 44.6675 11.4611 45.0066 13.4381C45.3457 15.4151 44.9747 17.4483 43.9592 19.1782C42.9437 20.908 41.3492 22.223 39.4577 22.8905C38.9472 23.0689 38.3878 23.046 37.8936 22.8264C37.3994 22.6068 37.0075 22.207 36.7978 21.7085C36.5881 21.2099 36.5764 20.6502 36.765 20.1434C36.9536 19.6365 37.3284 19.2207 37.8129 18.9805L38.0424 18.8828C38.7066 18.6479 39.3021 18.2517 39.7753 17.7298C40.2484 17.2078 40.5845 16.5765 40.7533 15.8925C40.9221 15.2085 40.9183 14.4933 40.7422 13.8112C40.5661 13.129 40.2234 12.5013 39.7446 11.9845C39.2659 11.4676 38.6663 11.0778 37.9996 10.85C37.3329 10.6223 36.6201 10.5637 35.9252 10.6797C35.2304 10.7956 34.5752 11.0824 34.0185 11.5142C33.4619 11.9461 33.0213 12.5095 32.7363 13.1538L32.6173 13.4576C32.4296 13.9891 32.0385 14.4242 31.53 14.6673C31.0215 14.9104 30.4373 14.9415 29.9058 14.7539C29.3744 14.5662 28.9392 14.1751 28.6961 13.6666C28.453 13.1581 28.4219 12.5738 28.6096 12.0424C29.1957 10.3849 30.2813 8.94994 31.7167 7.93499C33.1522 6.92004 34.867 6.37503 36.6251 6.375ZM15.3751 6.375C17.1331 6.37503 18.8479 6.92004 20.2834 7.93499C21.7189 8.94994 22.8044 10.3849 23.3906 12.0424C23.569 12.5529 23.5461 13.1123 23.3265 13.6065C23.1068 14.1007 22.707 14.4926 22.2085 14.7023C21.71 14.912 21.1503 14.9237 20.6435 14.7351C20.1366 14.5465 19.7207 14.1717 19.4806 13.6871L19.3828 13.4576C19.148 12.7934 18.7518 12.198 18.2298 11.7248C17.7079 11.2516 17.0766 10.9155 16.3926 10.7468C15.7086 10.578 14.9934 10.5818 14.3113 10.7579C13.6291 10.9339 13.0014 11.2767 12.4845 11.7554C11.9677 12.2341 11.5778 12.8338 11.3501 13.5004C11.1223 14.1671 11.0638 14.8799 11.1797 15.5748C11.2957 16.2697 11.5825 16.9249 12.0143 17.4815C12.4462 18.0382 13.0095 18.4788 13.6538 18.7638L13.9577 18.8849C14.4738 19.0839 14.892 19.4763 15.1234 19.9787C15.3548 20.4811 15.3811 21.054 15.1969 21.5755C15.0126 22.0971 14.6322 22.5262 14.1365 22.7718C13.6409 23.0173 13.069 23.0599 12.5424 22.8905C10.6534 22.2208 9.06172 20.9052 8.04832 19.176C7.03493 17.4469 6.66498 15.4153 7.00378 13.4399C7.34259 11.4645 8.36837 9.67228 9.90005 8.37964C11.4317 7.08699 13.3708 6.377 15.3751 6.375Z" fill="url(#paint0_linear_65_416)"/>
</g>
<path d="M57.348 18.484C56.568 18.484 55.9267 18.2587 55.424 17.808C54.9387 17.34 54.696 16.768 54.696 16.092C54.696 15.3987 54.9387 14.8267 55.424 14.376C55.9267 13.908 56.568 13.674 57.348 13.674C58.1107 13.674 58.7347 13.908 59.22 14.376C59.7227 14.8267 59.974 15.3987 59.974 16.092C59.974 16.768 59.7227 17.34 59.22 17.808C58.7347 18.2587 58.1107 18.484 57.348 18.484ZM59.558 19.992V34.5H55.112V19.992H59.558ZM81.692 19.836C83.4946 19.836 84.9246 20.382 85.982 21.474C87.0566 22.566 87.594 24.0827 87.594 26.024V34.5H83.174V26.622C83.174 25.686 82.9226 24.9667 82.42 24.464C81.9346 23.944 81.2586 23.684 80.392 23.684C79.5253 23.684 78.8406 23.944 78.338 24.464C77.8526 24.9667 77.61 25.686 77.61 26.622V34.5H73.19V26.622C73.19 25.686 72.9386 24.9667 72.436 24.464C71.9506 23.944 71.2746 23.684 70.408 23.684C69.5413 23.684 68.8566 23.944 68.354 24.464C67.8686 24.9667 67.626 25.686 67.626 26.622V34.5H63.18V19.992H67.626V21.812C68.0766 21.2053 68.666 20.7287 69.394 20.382C70.122 20.018 70.9453 19.836 71.864 19.836C72.956 19.836 73.9266 20.07 74.776 20.538C75.6426 21.006 76.3186 21.6733 76.804 22.54C77.3066 21.7427 77.9913 21.0927 78.858 20.59C79.7246 20.0873 80.6693 19.836 81.692 19.836ZM97.7074 34.708C96.2861 34.708 95.0034 34.4047 93.8594 33.798C92.7327 33.1913 91.8401 32.3247 91.1814 31.198C90.5401 30.0713 90.2194 28.754 90.2194 27.246C90.2194 25.7553 90.5487 24.4467 91.2074 23.32C91.8661 22.176 92.7674 21.3007 93.9114 20.694C95.0554 20.0873 96.3381 19.784 97.7594 19.784C99.1807 19.784 100.463 20.0873 101.607 20.694C102.751 21.3007 103.653 22.176 104.311 23.32C104.97 24.4467 105.299 25.7553 105.299 27.246C105.299 28.7367 104.961 30.054 104.285 31.198C103.627 32.3247 102.717 33.1913 101.555 33.798C100.411 34.4047 99.1287 34.708 97.7074 34.708ZM97.7074 30.86C98.5567 30.86 99.2761 30.548 99.8654 29.924C100.472 29.3 100.775 28.4073 100.775 27.246C100.775 26.0847 100.481 25.192 99.8914 24.568C99.3194 23.944 98.6087 23.632 97.7594 23.632C96.8927 23.632 96.1734 23.944 95.6014 24.568C95.0294 25.1747 94.7434 26.0673 94.7434 27.246C94.7434 28.4073 95.0207 29.3 95.5754 29.924C96.1474 30.548 96.8581 30.86 97.7074 30.86ZM112.504 22.046C112.92 21.37 113.518 20.824 114.298 20.408C115.078 19.992 115.971 19.784 116.976 19.784C118.172 19.784 119.255 20.0873 120.226 20.694C121.197 21.3007 121.959 22.1673 122.514 23.294C123.086 24.4207 123.372 25.7293 123.372 27.22C123.372 28.7107 123.086 30.028 122.514 31.172C121.959 32.2987 121.197 33.174 120.226 33.798C119.255 34.4047 118.172 34.708 116.976 34.708C115.953 34.708 115.061 34.5087 114.298 34.11C113.535 33.694 112.937 33.148 112.504 32.472V34.5H108.058V15.26H112.504V22.046ZM118.848 27.22C118.848 26.1107 118.536 25.244 117.912 24.62C117.305 23.9787 116.551 23.658 115.65 23.658C114.766 23.658 114.012 23.9787 113.388 24.62C112.781 25.2613 112.478 26.1367 112.478 27.246C112.478 28.3553 112.781 29.2307 113.388 29.872C114.012 30.5133 114.766 30.834 115.65 30.834C116.534 30.834 117.288 30.5133 117.912 29.872C118.536 29.2133 118.848 28.3293 118.848 27.22ZM128.341 18.484C127.561 18.484 126.919 18.2587 126.417 17.808C125.931 17.34 125.689 16.768 125.689 16.092C125.689 15.3987 125.931 14.8267 126.417 14.376C126.919 13.908 127.561 13.674 128.341 13.674C129.103 13.674 129.727 13.908 130.213 14.376C130.715 14.8267 130.967 15.3987 130.967 16.092C130.967 16.768 130.715 17.34 130.213 17.808C129.727 18.2587 129.103 18.484 128.341 18.484ZM130.551 19.992V34.5H126.105V19.992H130.551ZM151.385 20.096C152.997 20.096 154.314 20.616 155.337 21.656C156.359 22.6787 156.871 24.204 156.871 26.232V34.5H155.727V26.31C155.727 24.6287 155.319 23.346 154.505 22.462C153.707 21.5607 152.607 21.11 151.203 21.11C149.747 21.11 148.577 21.6127 147.693 22.618C146.809 23.6233 146.367 25.0793 146.367 26.986V34.5H145.223V26.31C145.223 24.6287 144.815 23.346 144.001 22.462C143.203 21.5607 142.103 21.11 140.699 21.11C139.243 21.11 138.073 21.6127 137.189 22.618C136.305 23.6233 135.863 25.0793 135.863 26.986V34.5H134.693V20.382H135.863V23.45C136.261 22.3407 136.903 21.5087 137.787 20.954C138.688 20.382 139.719 20.096 140.881 20.096C142.163 20.096 143.264 20.434 144.183 21.11C145.119 21.7687 145.76 22.748 146.107 24.048C146.436 22.748 147.077 21.7687 148.031 21.11C148.984 20.434 150.102 20.096 151.385 20.096ZM160.695 27.428C160.695 25.972 160.981 24.698 161.553 23.606C162.142 22.514 162.948 21.6733 163.971 21.084C165.011 20.4947 166.189 20.2 167.507 20.2C168.997 20.2 170.263 20.564 171.303 21.292C172.343 22.02 173.071 22.9473 173.487 24.074V20.382H174.657V34.5H173.487V30.782C173.071 31.926 172.334 32.8707 171.277 33.616C170.237 34.344 168.98 34.708 167.507 34.708C166.189 34.708 165.011 34.4133 163.971 33.824C162.948 33.2173 162.142 32.368 161.553 31.276C160.981 30.1667 160.695 28.884 160.695 27.428ZM173.487 27.428C173.487 26.1973 173.227 25.114 172.707 24.178C172.204 23.2247 171.511 22.4967 170.627 21.994C169.743 21.474 168.755 21.214 167.663 21.214C166.519 21.214 165.513 21.4653 164.647 21.968C163.78 22.4533 163.104 23.164 162.619 24.1C162.133 25.036 161.891 26.1453 161.891 27.428C161.891 28.7107 162.133 29.82 162.619 30.756C163.104 31.692 163.78 32.4113 164.647 32.914C165.531 33.4167 166.536 33.668 167.663 33.668C168.755 33.668 169.743 33.4167 170.627 32.914C171.528 32.394 172.23 31.666 172.733 30.73C173.235 29.7767 173.487 28.676 173.487 27.428ZM186.779 34.5L182.801 28.286L178.901 34.5H177.653L182.203 27.376L177.705 20.382H179.031L182.957 26.466L186.805 20.382H188.027L183.529 27.402L188.105 34.5H186.779Z" fill="#575756"/>
<defs>
<linearGradient id="paint0_linear_65_416" x1="26.0003" y1="6.375" x2="26.0003" y2="44.6285" gradientUnits="userSpaceOnUse">
<stop offset="0.14" stop-color="#6CA6DA"/>
<stop offset="0.51" stop-color="#5987C4"/>
<stop offset="0.63" stop-color="#5885C3"/>
<stop offset="1" stop-color="#314495"/>
</linearGradient>
<clipPath id="clip0_65_416">
<rect width="51" height="51" fill="white" transform="translate(0.5)"/>
</clipPath>
</defs>
</svg>
